<?xml version="1.0" encoding="UTF-8" standalone="no"?>
<!DOCTYPE svg PUBLIC "-//W3C//DTD SVG 1.1//EN"
 "http://www.w3.org/Graphics/SVG/1.1/DTD/svg11.dtd">
<!-- Generated by graphviz version 2.40.1 (20161225.0304)
 -->
<!-- Title: rtp_record Pages: 1 -->
<svg width="778pt" height="361pt"
 viewBox="0.00 0.00 778.21 361.20" xmlns="http://www.w3.org/2000/svg" xmlns:xlink="http://www.w3.org/1999/xlink">
<g id="graph0" class="graph" transform="scale(1 1) rotate(0) translate(4 357.2)">
<title>rtp_record</title>
<polygon fill="#ffffff" stroke="transparent" points="-4,4 -4,-357.2 774.212,-357.2 774.212,4 -4,4"/>
<text text-anchor="middle" x="385.106" y="-8.8" font-family="Times,serif" font-size="16.00" fill="#000000">服务端RTP录制拓扑结构</text>
<g id="clust1" class="cluster">
<title>cluster_server</title>
<polygon fill="none" stroke="#000000" stroke-dasharray="1,5" points="100.4638,-271.2 100.4638,-345.2 470.6374,-345.2 470.6374,-271.2 100.4638,-271.2"/>
<text text-anchor="middle" x="285.5506" y="-330.4" font-family="Times,serif" font-size="12.00" fill="#000000">会议服务器</text>
</g>
<g id="clust2" class="cluster">
<title>cluster_player</title>
<polygon fill="none" stroke="#000000" stroke-dasharray="1,5" points="692.212,-162.2 692.212,-245.2 762.212,-245.2 762.212,-162.2 692.212,-162.2"/>
<text text-anchor="middle" x="727.212" y="-228.6" font-family="Times,serif" font-size="14.00" fill="#000000">观看者</text>
</g>
<!-- client1 -->
<g id="node1" class="node">
<title>client1</title>
<polygon fill="none" stroke="#000000" points="71.6972,-342.2 -.2334,-342.2 -.2334,-306.2 71.6972,-306.2 71.6972,-342.2"/>
<text text-anchor="middle" x="35.7319" y="-320" font-family="Times,serif" font-size="14.00" fill="#000000">客户端1</text>
</g>
<!-- JSM -->
<g id="node3" class="node">
<title>JSM</title>
<polygon fill="none" stroke="#000000" points="181.0276,-315.2 108.2752,-315.2 108.2752,-279.2 181.0276,-279.2 181.0276,-315.2"/>
<text text-anchor="middle" x="144.6514" y="-293" font-family="Times,serif" font-size="14.00" fill="#000000">会场服务</text>
</g>
<!-- client1&#45;&gt;JSM -->
<g id="edge2" class="edge">
<title>client1&#45;&gt;JSM</title>
<path fill="none" stroke="#000000" d="M71.6981,-315.2844C83.4713,-312.3659 96.5531,-309.1231 108.3509,-306.1985"/>
</g>
<!-- client2 -->
<g id="node2" class="node">
<title>client2</title>
<polygon fill="none" stroke="#000000" points="71.6972,-288.2 -.2334,-288.2 -.2334,-252.2 71.6972,-252.2 71.6972,-288.2"/>
<text text-anchor="middle" x="35.7319" y="-266" font-family="Times,serif" font-size="14.00" fill="#000000">客户端2</text>
</g>
<!-- client2&#45;&gt;JSM -->
<g id="edge3" class="edge">
<title>client2&#45;&gt;JSM</title>
<path fill="none" stroke="#000000" d="M71.6981,-279.1156C83.4713,-282.0341 96.5531,-285.2769 108.3509,-288.2015"/>
</g>
<!-- disk -->
<g id="node4" class="node">
<title>disk</title>
<polygon fill="none" stroke="#000000" points="462.6692,-315.2 385.5419,-315.2 381.5419,-311.2 381.5419,-279.2 458.6692,-279.2 462.6692,-283.2 462.6692,-315.2"/>
<polyline fill="none" stroke="#000000" points="458.6692,-311.2 381.5419,-311.2 "/>
<polyline fill="none" stroke="#000000" points="458.6692,-311.2 458.6692,-279.2 "/>
<polyline fill="none" stroke="#000000" points="458.6692,-311.2 462.6692,-315.2 "/>
<text text-anchor="middle" x="422.1056" y="-293" font-family="Times,serif" font-size="14.00" fill="#000000">RTP文件夹</text>
</g>
<!-- JSM&#45;&gt;disk -->
<g id="edge1" class="edge">
<title>JSM&#45;&gt;disk</title>
<path fill="none" stroke="#000000" d="M180.9237,-297.2C229.4981,-297.2 315.9364,-297.2 371.065,-297.2"/>
<polygon fill="#000000" stroke="#000000" points="371.3154,-300.7001 381.3153,-297.2 371.3153,-293.7001 371.3154,-300.7001"/>
<text text-anchor="middle" x="269.9919" y="-300.8" font-family="Times,serif" font-size="12.00" fill="#000000">RTP直落盘</text>
</g>
<!-- node_file -->
<g id="node5" class="node">
<title>node_file</title>
<polygon fill="none" stroke="#000000" points="540.0652,-101.6 540.0652,-280.8 622.8864,-280.8 622.8864,-101.6 540.0652,-101.6"/>
<text text-anchor="middle" x="581.4758" y="-254.2" font-family="Times,serif" font-size="14.00" fill="#000000">存储服务1</text>
<polyline fill="none" stroke="#000000" points="540.0652,-236 622.8864,-236 "/>
<text text-anchor="middle" x="581.4758" y="-209.4" font-family="Times,serif" font-size="14.00" fill="#000000">存储服务2</text>
<polyline fill="none" stroke="#000000" points="540.0652,-191.2 622.8864,-191.2 "/>
<text text-anchor="middle" x="581.4758" y="-164.6" font-family="Times,serif" font-size="14.00" fill="#000000">...</text>
<polyline fill="none" stroke="#000000" points="540.0652,-146.4 622.8864,-146.4 "/>
<text text-anchor="middle" x="581.4758" y="-119.8" font-family="Times,serif" font-size="14.00" fill="#000000">存储服务n</text>
</g>
<!-- disk&#45;&gt;node_file -->
<g id="edge4" class="edge">
<title>disk&#45;&gt;node_file</title>
<path fill="none" stroke="#000000" d="M462.7432,-286.7311C481.8244,-280.6118 504.2359,-271.6081 522.0652,-259.2 525.5393,-256.7822 528.9415,-254.118 532.2483,-251.2862"/>
<polygon fill="#000000" stroke="#000000" points="534.7534,-253.7385 539.7798,-244.4119 530.0343,-248.5683 534.7534,-253.7385"/>
<text text-anchor="middle" x="505.405" y="-278.8" font-family="Times,serif" font-size="12.00" fill="#000000">转存</text>
</g>
<!-- player -->
<g id="node10" class="node">
<title>player</title>
<polygon fill="none" stroke="#000000" points="754.212,-211.8019 700.212,-211.8019 700.212,-170.5981 754.212,-170.5981 754.212,-211.8019"/>
<text text-anchor="middle" x="727.212" y="-195.4" font-family="Times,serif" font-size="14.00" fill="#000000">播放</text>
<text text-anchor="middle" x="727.212" y="-178.6" font-family="Times,serif" font-size="14.00" fill="#000000">转码</text>
</g>
<!-- node_file&#45;&gt;player -->
<g id="edge13" class="edge">
<title>node_file&#45;&gt;player</title>
<path fill="none" stroke="#000000" stroke-dasharray="5,2" d="M623.2379,-191.2C644.2959,-191.2 669.6205,-191.2 690.0041,-191.2"/>
<polygon fill="#000000" stroke="#000000" points="690.1643,-194.7001 700.1643,-191.2 690.1642,-187.7001 690.1643,-194.7001"/>
<text text-anchor="middle" x="661.5492" y="-194.8" font-family="Times,serif" font-size="12.00" fill="#000000">下载</text>
</g>
<!-- control -->
<g id="node6" class="node">
<title>control</title>
<ellipse fill="none" stroke="#000000" cx="269.9919" cy="-191.2" rx="52.3062" ry="52.3062"/>
<text text-anchor="middle" x="269.9919" y="-187" font-family="Times,serif" font-size="14.00" fill="#000000">文件调度</text>
</g>
<!-- control&#45;&gt;disk -->
<g id="edge5" class="edge">
<title>control&#45;&gt;disk</title>
<path fill="none" stroke="#d9d9d9" stroke-dasharray="5,2" d="M314.0254,-235.471C322.3602,-242.8253 331.2608,-250.0493 340.1448,-256.2 350.0579,-263.0632 361.2841,-269.4559 372.1773,-275.0552"/>
<polygon fill="#d9d9d9" stroke="#d9d9d9" points="316.3113,-232.8193 306.5468,-228.7076 311.616,-238.0111 316.3113,-232.8193"/>
<polygon fill="#d9d9d9" stroke="#d9d9d9" points="370.7027,-278.2308 381.2132,-279.5649 373.8286,-271.9676 370.7027,-278.2308"/>
<text text-anchor="middle" x="347.8056" y="-268.8" font-family="Times,serif" font-size="12.00" fill="#000000">rpc</text>
</g>
<!-- control&#45;&gt;node_file -->
<g id="edge6" class="edge">
<title>control&#45;&gt;node_file</title>
<path fill="none" stroke="#d9d9d9" stroke-dasharray="5,2" d="M329.4474,-209.4784C343.7275,-213.0967 359.028,-216.3473 373.4664,-218.2 439.0932,-226.6212 457.7018,-224.5349 522.0652,-209.2 524.6779,-208.5775 527.3451,-207.9056 530.0312,-207.1998"/>
<polygon fill="#d9d9d9" stroke="#d9d9d9" points="330.3086,-206.086 319.7473,-206.9273 328.5281,-212.8557 330.3086,-206.086"/>
<polygon fill="#d9d9d9" stroke="#d9d9d9" points="531.0612,-210.5466 539.7776,-204.5237 529.2078,-203.7964 531.0612,-210.5466"/>
<text text-anchor="middle" x="422.1056" y="-225.8" font-family="Times,serif" font-size="12.00" fill="#000000">rpc</text>
</g>
<!-- meeting1 -->
<g id="node7" class="node">
<title>meeting1</title>
<polygon fill="none" stroke="#000000" stroke-dasharray="1,5" points="470.8844,-209.2 373.3268,-209.2 373.3268,-173.2 470.8844,-173.2 470.8844,-209.2"/>
<text text-anchor="middle" x="422.1056" y="-187" font-family="Times,serif" font-size="14.00" fill="#000000">会议服务器</text>
</g>
<!-- control&#45;&gt;meeting1 -->
<g id="edge7" class="edge">
<title>control&#45;&gt;meeting1</title>
<path fill="none" stroke="#d9d9d9" stroke-dasharray="5,2" d="M332.5706,-191.2C342.64,-191.2 353.035,-191.2 363.0188,-191.2"/>
<polygon fill="#d9d9d9" stroke="#d9d9d9" points="332.3408,-187.7001 322.3408,-191.2 332.3407,-194.7001 332.3408,-187.7001"/>
<polygon fill="#d9d9d9" stroke="#d9d9d9" points="363.2434,-194.7001 373.2434,-191.2 363.2434,-187.7001 363.2434,-194.7001"/>
<text text-anchor="middle" x="347.8056" y="-194.8" font-family="Times,serif" font-size="12.00" fill="#000000">rpc</text>
</g>
<!-- meeting2 -->
<g id="node8" class="node">
<title>meeting2</title>
<polygon fill="none" stroke="#000000" stroke-dasharray="1,5" points="470.8844,-155.2 373.3268,-155.2 373.3268,-119.2 470.8844,-119.2 470.8844,-155.2"/>
<text text-anchor="middle" x="422.1056" y="-133" font-family="Times,serif" font-size="14.00" fill="#000000">会议服务器</text>
</g>
<!-- control&#45;&gt;meeting2 -->
<g id="edge8" class="edge">
<title>control&#45;&gt;meeting2</title>
<path fill="none" stroke="#d9d9d9" stroke-dasharray="5,2" d="M328.8636,-170.3007C340.3228,-166.2327 352.3312,-161.9697 363.7729,-157.9079"/>
<polygon fill="#d9d9d9" stroke="#d9d9d9" points="327.6317,-167.0239 319.3788,-173.6677 329.9736,-173.6206 327.6317,-167.0239"/>
<polygon fill="#d9d9d9" stroke="#d9d9d9" points="364.9733,-161.1959 373.2262,-154.5521 362.6315,-154.5992 364.9733,-161.1959"/>
<text text-anchor="middle" x="347.8056" y="-168.8" font-family="Times,serif" font-size="12.00" fill="#000000">rpc</text>
</g>
<!-- meeting3 -->
<g id="node9" class="node">
<title>meeting3</title>
<polygon fill="none" stroke="#000000" stroke-dasharray="1,5" points="470.8844,-101.2 373.3268,-101.2 373.3268,-65.2 470.8844,-65.2 470.8844,-101.2"/>
<text text-anchor="middle" x="422.1056" y="-79" font-family="Times,serif" font-size="14.00" fill="#000000">会议服务器</text>
</g>
<!-- control&#45;&gt;meeting3 -->
<g id="edge9" class="edge">
<title>control&#45;&gt;meeting3</title>
<path fill="none" stroke="#d9d9d9" stroke-dasharray="5,2" d="M318.3069,-150.8276C335.3137,-137.3107 354.8382,-122.5505 373.4664,-110.2 375.3304,-108.9642 377.2551,-107.731 379.2143,-106.5101"/>
<polygon fill="#d9d9d9" stroke="#d9d9d9" points="315.7879,-148.3612 310.1754,-157.3473 320.1667,-153.8226 315.7879,-148.3612"/>
<polygon fill="#d9d9d9" stroke="#d9d9d9" points="381.1743,-109.4157 387.9441,-101.2659 377.5696,-103.4152 381.1743,-109.4157"/>
<text text-anchor="middle" x="347.8056" y="-135.8" font-family="Times,serif" font-size="12.00" fill="#000000">rpc</text>
</g>
<!-- meeting1&#45;&gt;node_file -->
<g id="edge10" class="edge">
<title>meeting1&#45;&gt;node_file</title>
<path fill="none" stroke="#000000" d="M470.7878,-191.2C489.4017,-191.2 510.6894,-191.2 529.5912,-191.2"/>
<polygon fill="#000000" stroke="#000000" points="529.8146,-194.7001 539.8145,-191.2 529.8145,-187.7001 529.8146,-194.7001"/>
<text text-anchor="middle" x="505.405" y="-194.8" font-family="Times,serif" font-size="12.00" fill="#000000">转存</text>
</g>
<!-- meeting2&#45;&gt;node_file -->
<g id="edge11" class="edge">
<title>meeting2&#45;&gt;node_file</title>
<path fill="none" stroke="#000000" d="M470.7878,-153.6952C489.574,-160.0606 511.0839,-167.3489 530.1156,-173.7974"/>
<polygon fill="#000000" stroke="#000000" points="529.2202,-177.1895 539.8145,-177.0838 531.4667,-170.5597 529.2202,-177.1895"/>
<text text-anchor="middle" x="505.405" y="-173.8" font-family="Times,serif" font-size="12.00" fill="#000000">转存</text>
</g>
<!-- meeting3&#45;&gt;node_file -->
<g id="edge12" class="edge">
<title>meeting3&#45;&gt;node_file</title>
<path fill="none" stroke="#000000" d="M455.1858,-101.3C460.4139,-104.2362 465.743,-107.2738 470.7448,-110.2 493.8651,-123.7259 500.3079,-126.1756 522.0652,-141.8 525.2828,-144.1107 528.5487,-146.5456 531.8089,-149.0454"/>
<polygon fill="#000000" stroke="#000000" points="529.8393,-151.9485 539.8703,-155.3589 534.1554,-146.4375 529.8393,-151.9485"/>
<text text-anchor="middle" x="505.405" y="-144.8" font-family="Times,serif" font-size="12.00" fill="#000000">转存</text>
</g>
</g>
</svg>
